<?xml version="1.0" standalone="no"?>
<svg xmlns:xlink="http://www.w3.org/1999/xlink" id="wave" style="transform:rotate(0deg); transition: 0.3s" viewBox="0 0 1440 490" version="1.1" xmlns="http://www.w3.org/2000/svg"><defs><linearGradient id="sw-gradient-0" x1="0" x2="0" y1="1" y2="0"><stop stop-color="rgba(244.8, 247.35, 255, 1)" offset="0%"/><stop stop-color="rgba(244.8, 247.35, 255, 1)" offset="100%"/></linearGradient></defs><path style="transform:translate(0, 0px); opacity:1" fill="url(#sw-gradient-0)" d="M0,245L80,269.5C160,294,320,343,480,334.8C640,327,800,261,960,228.7C1120,196,1280,196,1440,236.8C1600,278,1760,359,1920,375.7C2080,392,2240,343,2400,343C2560,343,2720,392,2880,400.2C3040,408,3200,376,3360,302.2C3520,229,3680,114,3840,130.7C4000,147,4160,294,4320,302.2C4480,310,4640,180,4800,114.3C4960,49,5120,49,5280,40.8C5440,33,5600,16,5760,49C5920,82,6080,163,6240,220.5C6400,278,6560,310,6720,334.8C6880,359,7040,376,7200,326.7C7360,278,7520,163,7680,147C7840,131,8000,212,8160,261.3C8320,310,8480,327,8640,310.3C8800,294,8960,245,9120,236.8C9280,229,9440,261,9600,302.2C9760,343,9920,392,10080,408.3C10240,425,10400,408,10560,375.7C10720,343,10880,294,11040,253.2C11200,212,11360,180,11440,163.3L11520,147L11520,490L11440,490C11360,490,11200,490,11040,490C10880,490,10720,490,10560,490C10400,490,10240,490,10080,490C9920,490,9760,490,9600,490C9440,490,9280,490,9120,490C8960,490,8800,490,8640,490C8480,490,8320,490,8160,490C8000,490,7840,490,7680,490C7520,490,7360,490,7200,490C7040,490,6880,490,6720,490C6560,490,6400,490,6240,490C6080,490,5920,490,5760,490C5600,490,5440,490,5280,490C5120,490,4960,490,4800,490C4640,490,4480,490,4320,490C4160,490,4000,490,3840,490C3680,490,3520,490,3360,490C3200,490,3040,490,2880,490C2720,490,2560,490,2400,490C2240,490,2080,490,1920,490C1760,490,1600,490,1440,490C1280,490,1120,490,960,490C800,490,640,490,480,490C320,490,160,490,80,490L0,490Z"/></svg>